<?xml version="1.0" encoding="UTF-8"?>
<svg version="1.1" xmlns="http://www.w3.org/2000/svg" width="1024" height="1024">
<path d="M0 0 C337.92 0 675.84 0 1024 0 C1024 337.92 1024 675.84 1024 1024 C686.08 1024 348.16 1024 0 1024 C0 686.08 0 348.16 0 0 Z " fill="#101D2E" transform="translate(0,0)"/>
<path d="M0 0 C1.26023421 0.43672478 2.52066129 0.87289328 3.78125 1.30859375 C33.48975262 11.79736582 58.93213492 29.84606259 82 51 C83.11304236 52.00807633 84.22633728 53.01587385 85.33984375 54.0234375 C86.49771672 55.07777271 87.65527181 56.13245712 88.8125 57.1875 C89.35181152 57.67452393 89.89112305 58.16154785 90.44677734 58.66333008 C93.95778729 61.88275506 96.96844393 65.31429174 100 69 C101.65432948 70.6789132 103.32232141 72.3444185 105 74 C106.18021729 75.17236206 106.18021729 75.17236206 107.38427734 76.3684082 C108.1933252 77.17109131 109.00237305 77.97377441 109.8359375 78.80078125 C111.68236349 80.63794865 113.52871546 82.47519045 115.375 84.3125 C116.29539062 85.22451172 117.21578125 86.13652344 118.1640625 87.07617188 C119.06640625 87.97529297 119.96875 88.87441406 120.8984375 89.80078125 C121.70974121 90.60684814 122.52104492 91.41291504 123.35693359 92.2434082 C125.42119386 94.39633289 127.3915948 96.57192864 129.34472656 98.82275391 C135.02833843 105.36789876 141.07136208 111.56385602 147.1328125 117.75756836 C148.63394763 119.30071042 150.12513516 120.85358893 151.60644531 122.41577148 C153.7635065 124.68820261 155.95145931 126.92637767 158.1484375 129.16015625 C158.80186127 129.86205582 159.45528503 130.56395538 160.12850952 131.28712463 C163.654914 134.86966905 163.654914 134.86966905 168.33227539 136.23419189 C170.63774305 136.00247262 172.76166055 135.59064977 175 135 C175.83305664 134.82678223 176.66611328 134.65356445 177.52441406 134.47509766 C178.18151367 134.28995605 178.83861328 134.10481445 179.515625 133.9140625 C180.28132813 133.7068457 181.04703125 133.49962891 181.8359375 133.28613281 C182.63257813 133.06795898 183.42921875 132.84978516 184.25 132.625 C191.45682955 130.73892263 198.62186846 129.28315282 206 128.25 C206.82274414 128.13479004 207.64548828 128.01958008 208.49316406 127.90087891 C220.06914252 126.37236877 231.51276281 125.83127439 243.1875 125.875 C243.87407684 125.87754791 244.56065369 125.88009583 245.26803589 125.88272095 C249.84562551 125.90260298 254.42266888 125.94606693 259 126 C260.28729004 126.01087646 260.28729004 126.01087646 261.60058594 126.02197266 C294.95356962 126.4706334 333.80262077 134.95488985 363.1484375 151.00146484 C364.98817056 151.99362046 366.84674266 152.93366836 368.71875 153.86328125 C385.62371219 162.3557163 399.6000627 173.74874694 413 187 C413.60102539 187.57838623 414.20205078 188.15677246 414.82128906 188.75268555 C418.80906878 192.63258487 422.25503608 196.67126393 425.5 201.1875 C425.97066895 201.83895996 426.44133789 202.49041992 426.92626953 203.16162109 C435.82237356 215.63567173 443.49231536 229.67241733 446 245 C445.5703125 247.30859375 445.5703125 247.30859375 445 249 C444.10861328 248.31164062 444.10861328 248.31164062 443.19921875 247.609375 C431.48713825 238.93915678 418.43591027 235.7226947 403.95703125 236.046875 C394.31301928 236.08556712 394.31301928 236.08556712 390.51953125 232.94921875 C389.0458243 231.09433441 387.63794465 229.18582459 386.2890625 227.23828125 C371.81974504 206.76888846 347.89690187 192.93969788 325 184 C324.18845459 183.6788623 323.37690918 183.35772461 322.54077148 183.02685547 C315.4217588 180.31245357 308.25287176 178.48154015 300.8125 176.875 C299.03456055 176.48598511 299.03456055 176.48598511 297.22070312 176.08911133 C288.49523377 174.22285686 279.88382794 172.81532152 271 172 C270.07316406 171.89042969 269.14632812 171.78085937 268.19140625 171.66796875 C255.76882392 170.28357993 243.3605221 170.83776302 230.9375 171.875 C229.97424805 171.95339111 229.01099609 172.03178223 228.01855469 172.11254883 C222.49022963 172.61464244 217.34629163 173.50127514 212 175 C252.58507985 204.65023968 296.97555434 224.86336777 345 239 C341.78871595 240.81821325 338.85770078 241.52810739 335.23046875 242.1484375 C334.1014917 242.34703369 332.97251465 242.54562988 331.80932617 242.75024414 C330.61412354 242.95641357 329.4189209 243.16258301 328.1875 243.375 C318.2843674 245.1455858 308.6529791 247.14953206 299 250 C297.66450951 250.38047879 296.32855387 250.75932787 294.9921875 251.13671875 C291.65811316 252.07969339 288.32804906 253.03594265 285 254 C285.33 255.32 285.66 256.64 286 258 C287.11375 257.74605469 288.2275 257.49210937 289.375 257.23046875 C298.17707904 255.24001958 306.97689491 253.38253016 315.86328125 251.80859375 C319.31242487 251.17172692 322.70709104 250.35840319 326.1171875 249.5390625 C332.97284155 247.94192004 339.8383539 246.86789352 346.8125 245.9375 C348.07368652 245.76831055 349.33487305 245.59912109 350.63427734 245.42480469 C371.47896367 242.70011203 391.97590063 241.54767735 413 242 C413.78745605 242.01401855 414.57491211 242.02803711 415.38623047 242.04248047 C423.83856014 242.23507525 432.34810896 242.89923661 438.9453125 248.71484375 C443 253.175 443 253.175 443 257 C443.66 257 444.32 257 445 257 C445.5812787 266.30045918 443.54783163 272.75532768 437.72265625 280.0546875 C428.51866446 290.44831089 415.7412231 296.77568743 401.86968994 298.22213745 C397.32025099 298.49509871 392.77774193 298.48492918 388.22216797 298.41162109 C385.8703272 298.37492709 383.52006759 298.37060485 381.16796875 298.37109375 C372.58620834 298.33162546 364.42868146 297.75028584 356 296 C355.18917969 295.85175781 354.37835937 295.70351563 353.54296875 295.55078125 C346.23159354 294.18804519 339.06354999 292.268344 331.875 290.375 C330.01101563 289.88773438 330.01101563 289.88773438 328.109375 289.390625 C325.07223931 288.5962972 322.03581206 287.79936874 319 287 C319 286.34 319 285.68 319 285 C337.33156494 280.60827472 355.52291699 276.83145789 374.23144531 274.37451172 C376.58636107 274.05595433 378.92883769 273.7022047 381.2734375 273.31640625 C391.83625859 271.65522506 402.33818253 271.79973468 413 272 C413 271.34 413 270.68 413 270 C379.31414368 271.48409623 346.74508266 275.9545875 314 284 C311.73631786 284.53652343 309.47181642 285.06919116 307.20629883 285.59790039 C293.52433273 288.96190959 280.19450278 293.52567064 266.92578125 298.22949219 C264.73860111 299.00403668 262.54911093 299.77177747 260.359375 300.5390625 C253.15955781 303.07474014 246.05224953 305.72547138 239.02783203 308.72070312 C235.56098813 310.185488 232.06814474 311.58024332 228.5703125 312.96875 C200.35258281 324.21460054 173.1848127 337.4818167 146 351 C145.09106995 351.45172577 144.18213989 351.90345154 143.2456665 352.36886597 C140.55876509 353.70515813 137.87288896 355.04348384 135.1875 356.3828125 C134.3922995 356.77877121 133.597099 357.17472992 132.77780151 357.58268738 C127.52006773 360.21064938 122.31307789 362.92480862 117.125 365.6875 C97.46915095 376.08738057 77.64004624 385.97117054 57.1953125 394.73046875 C54.16450776 396.02961677 51.21677478 397.38086737 48.3046875 398.92578125 C-14.17166713 430.77350341 -96.50245377 441.66730455 -163.3125 420.1875 C-171.32946365 417.49192841 -178.80304312 413.93052454 -186.24707031 409.9375 C-187.83984572 409.08565354 -189.44659012 408.2600562 -191.0546875 407.4375 C-204.22590181 400.57205118 -215.77218862 390.89297724 -226.74609375 380.96875 C-228.95307315 379.04098983 -231.23144755 377.27455746 -233.5625 375.5 C-257.8458779 356.16393549 -273.39278736 331.82380874 -284 303 C-284.41121094 301.92878906 -284.82242188 300.85757812 -285.24609375 299.75390625 C-289.23020791 288.32864503 -290.386473 275.94425403 -292 264 C-292.17797119 262.72382812 -292.35594238 261.44765625 -292.53930664 260.1328125 C-293.04318193 256.04620074 -293.1773672 251.97797203 -293.203125 247.86328125 C-293.21009399 247.10981415 -293.21706299 246.35634705 -293.22424316 245.58004761 C-293.24155638 243.15747435 -293.24796445 240.73513258 -293.25 238.3125 C-293.25100708 237.48497223 -293.25201416 236.65744446 -293.25305176 235.80484009 C-293.24250356 222.99358571 -292.69890906 210.56706533 -290 198 C-289.85546387 197.3188916 -289.71092773 196.6377832 -289.56201172 195.93603516 C-288.69256757 191.97202458 -287.68908103 188.05712767 -286.59765625 184.14746094 C-285.93363192 181.76153037 -285.29572747 179.3691837 -284.65625 176.9765625 C-279.88724791 159.42346949 -273.52995581 143.05795612 -265 127 C-264.43756592 125.92516357 -264.43756592 125.92516357 -263.86376953 124.82861328 C-253.9866376 106.03285494 -241.75867756 89.18127569 -227.359375 73.58203125 C-225.40964842 71.44830729 -223.54114559 69.27861589 -221.6875 67.0625 C-199.87116201 42.15846684 -168.18155439 21.83047698 -137.48193359 9.96044922 C-135.8037178 9.31101965 -134.12961513 8.6508758 -132.45947266 7.98095703 C-117.33155489 1.92353049 -102.01532084 -2.03738732 -86 -5 C-85.20770996 -5.14695313 -84.41541992 -5.29390625 -83.59912109 -5.4453125 C-57.07320015 -10.04256822 -25.31906289 -9.24396479 0 0 Z " fill="#132031" transform="translate(450,250)"/>
<path d="M0 0 C1.26023421 0.43672478 2.52066129 0.87289328 3.78125 1.30859375 C33.48975262 11.79736582 58.93213492 29.84606259 82 51 C83.11304236 52.00807633 84.22633728 53.01587385 85.33984375 54.0234375 C86.49771672 55.07777271 87.65527181 56.13245712 88.8125 57.1875 C89.35181152 57.67452393 89.89112305 58.16154785 90.44677734 58.66333008 C93.95778729 61.88275506 96.96844393 65.31429174 100 69 C101.65432948 70.6789132 103.32232141 72.3444185 105 74 C106.18021729 75.17236206 106.18021729 75.17236206 107.38427734 76.3684082 C108.1933252 77.17109131 109.00237305 77.97377441 109.8359375 78.80078125 C111.68236349 80.63794865 113.52871546 82.47519045 115.375 84.3125 C116.29539062 85.22451172 117.21578125 86.13652344 118.1640625 87.07617188 C119.06640625 87.97529297 119.96875 88.87441406 120.8984375 89.80078125 C121.70974121 90.60684814 122.52104492 91.41291504 123.35693359 92.2434082 C125.42119386 94.39633289 127.3915948 96.57192864 129.34472656 98.82275391 C135.02833843 105.36789876 141.07136208 111.56385602 147.1328125 117.75756836 C148.63394763 119.30071042 150.12513516 120.85358893 151.60644531 122.41577148 C153.7635065 124.68820261 155.95145931 126.92637767 158.1484375 129.16015625 C158.80186127 129.86205582 159.45528503 130.56395538 160.12850952 131.28712463 C163.654914 134.86966905 163.654914 134.86966905 168.33227539 136.23419189 C170.63774305 136.00247262 172.76166055 135.59064977 175 135 C175.83305664 134.82678223 176.66611328 134.65356445 177.52441406 134.47509766 C178.18151367 134.28995605 178.83861328 134.10481445 179.515625 133.9140625 C180.28132813 133.7068457 181.04703125 133.49962891 181.8359375 133.28613281 C182.63257813 133.06795898 183.42921875 132.84978516 184.25 132.625 C191.45682955 130.73892263 198.62186846 129.28315282 206 128.25 C206.82274414 128.13479004 207.64548828 128.01958008 208.49316406 127.90087891 C220.06914252 126.37236877 231.51276281 125.83127439 243.1875 125.875 C243.87407684 125.87754791 244.56065369 125.88009583 245.26803589 125.88272095 C249.84562551 125.90260298 254.42266888 125.94606693 259 126 C260.28729004 126.01087646 260.28729004 126.01087646 261.60058594 126.02197266 C294.95356962 126.4706334 333.80262077 134.95488985 363.1484375 151.00146484 C364.98817056 151.99362046 366.84674266 152.93366836 368.71875 153.86328125 C385.62371219 162.3557163 399.6000627 173.74874694 413 187 C413.60102539 187.57838623 414.20205078 188.15677246 414.82128906 188.75268555 C418.80906878 192.63258487 422.25503608 196.67126393 425.5 201.1875 C425.97066895 201.83895996 426.44133789 202.49041992 426.92626953 203.16162109 C435.82237356 215.63567173 443.49231536 229.67241733 446 245 C445.5703125 247.30859375 445.5703125 247.30859375 445 249 C444.10861328 248.31164062 444.10861328 248.31164062 443.19921875 247.609375 C431.48713825 238.93915678 418.43591027 235.7226947 403.95703125 236.046875 C394.31301928 236.08556712 394.31301928 236.08556712 390.51953125 232.94921875 C389.0458243 231.09433441 387.63794465 229.18582459 386.2890625 227.23828125 C371.81974504 206.76888846 347.89690187 192.93969788 325 184 C324.18845459 183.6788623 323.37690918 183.35772461 322.54077148 183.02685547 C315.4217588 180.31245357 308.25287176 178.48154015 300.8125 176.875 C299.03456055 176.48598511 299.03456055 176.48598511 297.22070312 176.08911133 C288.49523377 174.22285686 279.88382794 172.81532152 271 172 C270.07316406 171.89042969 269.14632812 171.78085937 268.19140625 171.66796875 C255.76882392 170.28357993 243.3605221 170.83776302 230.9375 171.875 C229.97424805 171.95339111 229.01099609 172.03178223 228.01855469 172.11254883 C222.49022963 172.61464244 217.34629163 173.50127514 212 175 C252.58507985 204.65023968 296.97555434 224.86336777 345 239 C341.78871595 240.81821325 338.85770078 241.52810739 335.23046875 242.1484375 C334.09287109 242.34953125 332.95527344 242.550625 331.78320312 242.7578125 C329.4291093 243.16188292 327.07494526 243.56554459 324.72070312 243.96875 C316.68890527 245.38903434 308.89075906 247.2747272 301.03109741 249.44665527 C297.37048293 250.44393965 293.69461815 251.38194749 290.01953125 252.32421875 C289.26403488 252.51836365 288.50853851 252.71250854 287.73014832 252.91253662 C285.424424 253.50481027 283.11846363 254.09615889 280.8125 254.6875 C279.22850018 255.09434092 277.64451574 255.50124171 276.06054688 255.90820312 C272.0407994 256.94051378 268.02097928 257.97249593 264 259 C262.97048218 259.39010254 262.97048218 259.39010254 261.92016602 259.78808594 C258.75937243 260.13691859 256.57128237 258.69359914 253.7578125 257.31640625 C253.15747696 257.02593918 252.55714142 256.73547211 251.93861389 256.436203 C249.99437754 255.49071573 248.05957 254.52759269 246.125 253.5625 C244.7922683 252.9068306 243.45934156 252.25155749 242.1262207 251.59667969 C233.56359666 247.36981918 225.13454162 243.01458452 217 238 C216.40606445 237.6405127 215.81212891 237.28102539 215.20019531 236.91064453 C198.86979217 227.02645316 183.23974973 216.31203174 168.48339844 204.19970703 C166.67720555 202.73893813 164.8192331 201.36167606 162.9375 200 C160.36722741 198.1260788 157.96908553 196.11483723 155.5859375 194.01171875 C154.965979 193.46708984 154.34602051 192.92246094 153.70727539 192.36132812 C152.46706335 191.26573558 151.23412857 190.16183594 150.00952148 189.04882812 C146.79770362 186.21150453 144.46499091 184.15346123 140 184 C138.71222656 184.30550781 138.71222656 184.30550781 137.3984375 184.6171875 C135 185 135 185 133.2890625 183.8828125 C132.73992187 183.30273438 132.19078125 182.72265625 131.625 182.125 C127.84228412 178.52997613 123.84369026 175.89153123 119.375 173.25 C118.74158691 172.87375488 118.10817383 172.49750977 117.45556641 172.10986328 C113.70822066 169.91665309 109.90707348 167.8994388 106 166 C109.27708863 162.32966073 112.71522208 160.30718811 117 158 C112.67653072 152.88500327 108.21581855 147.9382015 103.625 143.0625 C102.63209961 142.00482422 102.63209961 142.00482422 101.61914062 140.92578125 C97.75867585 136.82617264 93.84384306 132.79846074 89.82299805 128.85546875 C88.07635765 127.07771771 86.45587808 125.24407586 84.83984375 123.34765625 C80.77688591 118.67649049 76.44974214 114.30252826 72.0625 109.9375 C70.92264648 108.7918457 70.92264648 108.7918457 69.75976562 107.62304688 C65.56132903 103.43178096 61.27618635 99.40928276 56.7800293 95.53930664 C54.42327338 93.50126713 52.1535854 91.37472593 49.875 89.25 C44.07550206 83.96316487 37.97561709 79.13637965 31.75537109 74.35693359 C30.05090765 73.03935253 28.36168726 71.70449087 26.67578125 70.36328125 C14.67928105 60.87063361 1.80365812 53.50117126 -12 47 C-13.54494141 46.27103516 -13.54494141 46.27103516 -15.12109375 45.52734375 C-21.98904817 42.48009668 -28.94522997 40.5869026 -36.23828125 38.89453125 C-40 38 -40 38 -43.140625 36.90234375 C-48.89733154 35.55639313 -54.54596738 35.70349304 -60.4375 35.75 C-61.69651123 35.75894287 -62.95552246 35.76788574 -64.25268555 35.77709961 C-113.49228077 36.38985619 -155.06396211 62.124937 -190 95 C-190.65871094 95.61617188 -191.31742187 96.23234375 -191.99609375 96.8671875 C-197.14552275 101.83822981 -201.60479597 107.36141588 -206 113 C-206.78375 114.00546875 -207.5675 115.0109375 -208.375 116.046875 C-231.23972861 146.27794849 -245.18937592 184.40268244 -245.18530273 222.34033203 C-245.1874742 224.59817801 -245.20562625 226.85552237 -245.22460938 229.11328125 C-245.2715081 240.84650306 -244.23127113 252.10600687 -240.75 263.375 C-240.53311523 264.0863208 -240.31623047 264.7976416 -240.09277344 265.53051758 C-233.02926256 288.16540254 -220.77236613 311.47305202 -199.09375 323.16015625 C-170.79302831 337.81225643 -144.4361181 335.52462026 -114.30078125 326.6640625 C-110.81921088 325.54051358 -107.40943084 324.32468332 -104 323 C-102.62134766 322.48759766 -102.62134766 322.48759766 -101.21484375 321.96484375 C-75.01025275 311.68202956 -50.27717224 296.67258541 -27 281 C-26.15324707 280.4318457 -25.30649414 279.86369141 -24.43408203 279.27832031 C-21.88914248 277.56696017 -19.34938218 275.84827855 -16.8125 274.125 C-16.0587207 273.61388672 -15.30494141 273.10277344 -14.52832031 272.57617188 C-9.80913186 269.34051666 -5.29804362 265.92158428 -0.85424805 262.31591797 C1 261 1 261 3 261 C3.27972656 261.81082031 3.55945313 262.62164063 3.84765625 263.45703125 C8.59077729 276.55780609 15.61799451 288.47148023 26.7734375 297.16015625 C27.50820313 297.76730469 28.24296875 298.37445312 29 299 C29 299.66 29 300.32 29 301 C27.0078125 302.5234375 27.0078125 302.5234375 24.125 304.375 C23.00216356 305.10218469 21.87979539 305.83009278 20.7578125 306.55859375 C20.14711914 306.95288574 19.53642578 307.34717773 18.90722656 307.75341797 C16.98159699 309.01202839 15.07883379 310.29947531 13.1796875 311.59765625 C-24.63102774 337.36965724 -65.18449738 360.25366482 -110 371 C-110.6813501 371.18022705 -111.3627002 371.3604541 -112.06469727 371.54614258 C-119.64689851 373.34943782 -127.2472809 373.33779531 -134.99389648 373.31567383 C-137.29784806 373.31252006 -139.60050365 373.33602252 -141.90429688 373.36132812 C-169.28221646 373.48047208 -191.62414595 361.68256743 -211 343 C-223.8803126 329.87559984 -232.85064482 313.19469378 -239 296 C-239.85319959 293.89544102 -240.70735234 291.79126817 -241.5625 289.6875 C-246.93468097 275.38471595 -249.69866923 261.85474258 -250.83642578 246.57006836 C-251.57730032 237.72471899 -253.17041109 232.94835163 -260 227 C-265.20619262 225.26460246 -271.97575628 224.55988394 -277.05078125 226.9765625 C-280.40083122 229.68652848 -282.66068827 232.75270192 -283.30639648 237.02929688 C-284.80975159 287.90510287 -264.57575571 339.00227107 -230 376 C-235.52473555 376 -239.17238945 370.65055102 -243 367 C-244.43666016 365.66001953 -244.43666016 365.66001953 -245.90234375 364.29296875 C-264.07729245 347.01895934 -275.41684994 326.32366513 -284 303 C-284.41121094 301.92878906 -284.82242188 300.85757812 -285.24609375 299.75390625 C-289.23020791 288.32864503 -290.386473 275.94425403 -292 264 C-292.17797119 262.72382812 -292.35594238 261.44765625 -292.53930664 260.1328125 C-293.04318193 256.04620074 -293.1773672 251.97797203 -293.203125 247.86328125 C-293.21009399 247.10981415 -293.21706299 246.35634705 -293.22424316 245.58004761 C-293.24155638 243.15747435 -293.24796445 240.73513258 -293.25 238.3125 C-293.25100708 237.48497223 -293.25201416 236.65744446 -293.25305176 235.80484009 C-293.24250356 222.99358571 -292.69890906 210.56706533 -290 198 C-289.85546387 197.3188916 -289.71092773 196.6377832 -289.56201172 195.93603516 C-288.69256757 191.97202458 -287.68908103 188.05712767 -286.59765625 184.14746094 C-285.93363192 181.76153037 -285.29572747 179.3691837 -284.65625 176.9765625 C-279.88724791 159.42346949 -273.52995581 143.05795612 -265 127 C-264.43756592 125.92516357 -264.43756592 125.92516357 -263.86376953 124.82861328 C-253.9866376 106.03285494 -241.75867756 89.18127569 -227.359375 73.58203125 C-225.40964842 71.44830729 -223.54114559 69.27861589 -221.6875 67.0625 C-199.87116201 42.15846684 -168.18155439 21.83047698 -137.48193359 9.96044922 C-135.8037178 9.31101965 -134.12961513 8.6508758 -132.45947266 7.98095703 C-117.33155489 1.92353049 -102.01532084 -2.03738732 -86 -5 C-85.20770996 -5.14695313 -84.41541992 -5.29390625 -83.59912109 -5.4453125 C-57.07320015 -10.04256822 -25.31906289 -9.24396479 0 0 Z " fill="#FCFCFC" transform="translate(450,250)"/>
<path d="M0 0 C1.16160645 0.02320313 1.16160645 0.02320313 2.34667969 0.046875 C10.81432809 0.23742686 19.33420643 0.88698117 25.9453125 6.71484375 C30 11.175 30 11.175 30 15 C30.66 15 31.32 15 32 15 C32.5812787 24.30045918 30.54783163 30.75532768 24.72265625 38.0546875 C15.51866446 48.44831089 2.7412231 54.77568743 -11.13031006 56.22213745 C-15.67974901 56.49509871 -20.22225807 56.48492918 -24.77783203 56.41162109 C-27.1296728 56.37492709 -29.47993241 56.37060485 -31.83203125 56.37109375 C-40.41379166 56.33162546 -48.57131854 55.75028584 -57 54 C-57.81082031 53.85175781 -58.62164063 53.70351563 -59.45703125 53.55078125 C-66.76840646 52.18804519 -73.93645001 50.268344 -81.125 48.375 C-82.36765625 48.05015625 -83.6103125 47.7253125 -84.890625 47.390625 C-87.92776069 46.5962972 -90.96418794 45.79936874 -94 45 C-94 44.34 -94 43.68 -94 43 C-75.66843506 38.60827472 -57.47708301 34.83145789 -38.76855469 32.37451172 C-36.41363893 32.05595433 -34.07116231 31.7022047 -31.7265625 31.31640625 C-21.16374141 29.65522506 -10.66181747 29.79973468 0 30 C0 29.34 0 28.68 0 28 C-23.86061411 29.25501007 -23.86061411 29.25501007 -47.59375 31.9465332 C-52.36466865 32.61977666 -57.07040063 33.07499096 -61.88674927 33.28643799 C-71.17914891 33.70404124 -80.09373409 35.03726859 -89.21166992 36.84643555 C-91.56279646 37.31255877 -93.91664052 37.76206008 -96.27148438 38.20898438 C-109.48015109 40.7474589 -122.48135963 43.81033392 -135.30859375 47.88671875 C-138.12811132 48.73704944 -140.93761368 49.52468665 -143.78515625 50.26953125 C-158.47112179 54.11239736 -172.71414823 58.87810626 -187 64 C-188.14162598 64.40750488 -189.28325195 64.81500977 -190.45947266 65.23486328 C-207.49276672 70.97931274 -207.49276672 70.97931274 -224.0625 77.875 C-228.26766535 79.77839063 -232.56433449 81.28794847 -236.9375 82.75 C-237.60080322 82.97284668 -238.26410645 83.19569336 -238.94750977 83.42529297 C-243.74152163 85 -243.74152163 85 -246 85 C-246 85.66 -246 86.32 -246 87 C-246.85722656 87.31453125 -247.71445312 87.6290625 -248.59765625 87.953125 C-254.74068472 90.25243216 -260.38445419 92.63067251 -266 96 C-269.0603156 97.38580329 -272.13607593 98.67250906 -275.27734375 99.86328125 C-280.94557222 102.03923625 -286.13205174 104.66478005 -291.42578125 107.6328125 C-293.55394464 108.76309655 -295.54405348 109.65394278 -297.8125 110.4375 C-304.14643365 112.64731052 -310.03604756 115.95530821 -316 119 C-324.27220794 123.22071983 -332.49072163 127.30714581 -341.11328125 130.77734375 C-345.28087565 132.5425089 -349.28738992 134.59445004 -353.30859375 136.66796875 C-357.91325532 138.94690865 -362.65046421 140.55755991 -367.51953125 142.16113281 C-370.95519416 143.32303613 -374.34869573 144.59009667 -377.74780273 145.85424805 C-402.26624551 154.94779983 -427.03231405 160.78767436 -453 164 C-453.69295166 164.09716309 -454.38590332 164.19432617 -455.09985352 164.29443359 C-462.116442 165.209676 -469.12136615 165.14695588 -476.1875 165.125 C-477.41275391 165.12886719 -478.63800781 165.13273438 -479.90039062 165.13671875 C-491.37371997 165.12462246 -502.85368027 164.89845332 -514.0625 162.25 C-514.81708496 162.07662109 -515.57166992 161.90324219 -516.34912109 161.72460938 C-526.08776523 159.38749995 -535.16127055 155.67932735 -544 151 C-540.40696227 149.80232076 -538.72230394 150.36582181 -535 151 C-531.78964837 151.20474999 -528.57936326 151.25801918 -525.36328125 151.30859375 C-523.9531778 151.3314872 -523.9531778 151.3314872 -522.5145874 151.35484314 C-498.63335542 151.66927602 -476.29623949 150.22957848 -453 145 C-451.91396484 144.77038574 -450.82792969 144.54077148 -449.70898438 144.30419922 C-429.03940084 139.91306395 -408.66053375 132.82158883 -389.11035156 124.84472656 C-386.21321128 123.68506606 -383.26809158 122.68723885 -380.3125 121.6875 C-373.45060582 119.24836845 -366.90797713 116.3076565 -360.36035156 113.13964844 C-357.59623869 111.80505194 -354.825593 110.48449715 -352.0546875 109.1640625 C-339.2277097 103.04258414 -326.47709913 96.7926838 -313.79443359 90.37890625 C-297.01585568 81.89804387 -280.17176534 73.66541877 -263 66 C-261.90437744 65.50971313 -261.90437744 65.50971313 -260.78662109 65.00952148 C-240.74631638 56.06870665 -220.58800607 47.75722009 -200.01660156 40.12646484 C-197.57309906 39.2140077 -195.13897788 38.28457017 -192.7109375 37.33203125 C-183.65096005 33.80870669 -174.43333138 30.80259243 -165.1875 27.8125 C-164.1843576 27.48739944 -164.1843576 27.48739944 -163.16094971 27.1557312 C-155.15729649 24.56804972 -147.13304346 22.14885918 -139 20 C-137.22472581 19.51366603 -135.44998805 19.02536987 -133.67578125 18.53515625 C-102.9902546 10.09677767 -102.9902546 10.09677767 -87.3515625 7.40625 C-85.69690213 7.12039505 -84.04334015 6.82814494 -82.390625 6.53125 C-55.0810866 1.64909788 -27.74260069 -0.79179738 0 0 Z " fill="#F6D674" transform="translate(863,492)"/>
<path d="M0 0 C3.46098938 1.69001528 5.81731753 3.59846846 8.25 6.5625 C9.00023437 7.46162109 9.00023437 7.46162109 9.765625 8.37890625 C12.13797614 11.49449398 12.27376544 14.0036287 12.61328125 17.86328125 C12.72736328 19.06146484 12.84144531 20.25964844 12.95898438 21.49414062 C13.19061858 23.99604601 13.41485176 26.49865017 13.63085938 29.00195312 C14.34981409 36.39186467 15.75865114 42.96017927 18.1159668 49.99511719 C18.94523324 52.81384445 19.33106227 55.2938585 19.53125 58.21484375 C19.90180532 63.43525231 21.47981306 67.76473634 23.5 72.5625 C23.85457275 73.42238525 24.20914551 74.28227051 24.57446289 75.16821289 C32.00157007 92.80333099 41.68837082 108.34101739 54 123 C54.66257812 123.80953125 55.32515625 124.6190625 56.0078125 125.453125 C73.74081842 146.26159689 99.77700939 159.57245161 126.1875 165.4375 C130.89598543 166.52856973 135.05200133 168.32063014 139.375 170.4375 C146.38145334 173.86809771 153.40235824 176.16320749 161 178 C161.85980469 178.21398437 162.71960938 178.42796875 163.60546875 178.6484375 C194.17289267 185.52984778 227.83879378 180.7276043 258 174 C259.90458984 173.59007812 259.90458984 173.59007812 261.84765625 173.171875 C274.05191782 170.34859682 285.81869195 166.14161347 297.66162109 162.1015625 C302.21933694 160.59765626 306.81867805 159.24520153 311.42895508 157.91210938 C314.12277254 157.16389079 314.12277254 157.16389079 316 155 C317.43858875 154.36954278 318.90141415 153.79365303 320.375 153.25 C324.37767319 151.70429911 328.18017484 149.95432915 332 148 C336.50804314 145.69678926 341.03754058 143.75082303 345.7578125 141.93359375 C347.84829582 141.06316603 349.73855798 140.0852103 351.6875 138.9375 C355.03858157 136.97743342 358.43247578 135.51950106 362 134 C362.825 133.505 363.65 133.01 364.5 132.5 C367.54013729 130.67591762 370.74066405 129.37205446 374 128 C376.66996075 126.86173252 379.33552204 125.71353406 382 124.5625 C382.67289063 124.27568359 383.34578125 123.98886719 384.0390625 123.69335938 C387.31080322 122.27539453 390.43552824 120.79153993 393.5 118.96484375 C396.55218737 117.16424789 399.63835163 115.96796062 402.96923828 114.78173828 C406.43292268 113.44839884 409.65873797 111.66653466 412.9375 109.9375 C418.5842276 107.02475597 423.65103046 104.90699565 430 104 C430 103.34 430 102.68 430 102 C437.21999726 99.19923795 444.44484575 96.44430452 451.7578125 93.89453125 C454.22337884 93.00050314 454.22337884 93.00050314 457 91 C458.48383823 90.4956301 459.98542881 90.04220059 461.49609375 89.625 C467.11850957 87.99973075 472.5727851 86.02245534 478.0625 84 C500.39517454 75.8902843 522.79510274 68.00622315 545.95825195 62.60327148 C548.01971981 62.06677707 548.01971981 62.06677707 549.84700012 61.02713013 C552.08757985 59.95821834 554.05831072 59.44244453 556.48974609 58.96264648 C557.37101166 58.78583847 558.25227722 58.60903046 559.1602478 58.42686462 C560.1051004 58.24346024 561.049953 58.06005585 562.0234375 57.87109375 C563.00236969 57.67653091 563.98130188 57.48196808 564.98989868 57.2815094 C568.1172239 56.66142851 571.24608083 56.04948119 574.375 55.4375 C576.47405923 55.02199375 578.57301881 54.60598377 580.671875 54.18945312 C602.55553334 49.86043333 602.55553334 49.86043333 608.875 49.9375 C609.84179688 49.94652344 610.80859375 49.95554687 611.8046875 49.96484375 C612.89136719 49.98224609 612.89136719 49.98224609 614 50 C614 50.33 614 50.66 614 51 C613.10506836 51.1858667 612.21013672 51.3717334 611.28808594 51.56323242 C590.55404391 55.8319784 590.55404391 55.8319784 569.9375 60.625 C569.24688477 60.79410889 568.55626953 60.96321777 567.84472656 61.13745117 C554.9891761 64.41206411 542.4200632 68.80021296 529.92578125 73.22949219 C527.73860111 74.00403668 525.54911093 74.77177747 523.359375 75.5390625 C516.15955781 78.07474014 509.05224953 80.72547138 502.02783203 83.72070312 C498.56098813 85.185488 495.06814474 86.58024332 491.5703125 87.96875 C463.35258281 99.21460054 436.1848127 112.4818167 409 126 C407.63660492 126.67758865 407.63660492 126.67758865 406.2456665 127.36886597 C403.55876509 128.70515813 400.87288896 130.04348384 398.1875 131.3828125 C396.99469925 131.97675056 396.99469925 131.97675056 395.77780151 132.58268738 C390.52006773 135.21064938 385.31307789 137.92480862 380.125 140.6875 C360.46915095 151.08738057 340.64004624 160.97117054 320.1953125 169.73046875 C317.16450776 171.02961677 314.21677478 172.38086737 311.3046875 173.92578125 C248.82833287 205.77350341 166.49754623 216.66730455 99.6875 195.1875 C91.67053635 192.49192841 84.19695688 188.93052454 76.75292969 184.9375 C75.16015428 184.08565354 73.55340988 183.2600562 71.9453125 182.4375 C32.10421724 161.67047017 2.68607728 121.22507323 -11 79 C-13.3484276 71.082963 -15.24445292 63.06675814 -17 55 C-17.21317871 54.02305176 -17.42635742 53.04610352 -17.64599609 52.03955078 C-19.90510182 41.36030476 -21.36306405 30.86498876 -21.5 19.9375 C-21.51853027 19.02726074 -21.53706055 18.11702148 -21.55615234 17.17919922 C-21.49019683 10.32111862 -19.41296144 6.86539171 -15 1.625 C-10.26917095 -0.9375324 -5.26397336 -0.77699607 0 0 Z " fill="#C99A2E" transform="translate(187,475)"/>
<path d="M0 0 C8.43001429 7.04425852 14.0321758 15.70459549 18.96875 25.40625 C19.31107666 26.07591797 19.65340332 26.74558594 20.00610352 27.43554688 C26.2944118 40.28438458 25.42339572 60.57348863 20.91064453 73.93066406 C16.87491358 85.05974697 10.92697626 94.69802374 2.53125 103.09375 C1.54125 103.09375 0.55125 103.09375 -0.46875 103.09375 C-0.695625 103.67125 -0.9225 104.24875 -1.15625 104.84375 C-4.80756225 111.10314242 -13.56641539 115.70446472 -20.39160156 117.63867188 C-23.67264977 118.40229584 -26.9588134 118.98909883 -30.28125 119.55078125 C-33.4770644 120.01183793 -33.4770644 120.01183793 -36.46875 121.09375 C-57.75873485 122.66345768 -75.63381809 119.42311877 -92.1328125 105.3359375 C-100.92437998 96.89720885 -106.61104595 88.14778676 -111.46875 77.09375 C-111.819375 76.33964844 -112.17 75.58554687 -112.53125 74.80859375 C-118.56612527 57.33260078 -116.70275867 38.47807459 -108.84375 22.09375 C-99.46437145 3.59697463 -84.64438837 -8.51437054 -65.1875 -15 C-41.59335465 -21.30734579 -18.90883843 -14.6004955 0 0 Z " fill="#E4C466" transform="translate(573.46875,434.90625)"/>
<path d="M0 0 C0 61.05 0 122.1 0 185 C-1.98 184.67 -3.96 184.34 -6 184 C-7.19882812 183.82210937 -7.19882812 183.82210937 -8.421875 183.640625 C-19.10313961 181.84846651 -27.65409148 176.99850631 -35 169 C-35.33 168.01 -35.66 167.02 -36 166 C-36.93680351 165.10251793 -36.93680351 165.10251793 -37.89253235 164.18690491 C-48.55501116 153.12252286 -45.62960934 132.754961 -45.48828125 118.84765625 C-45.47613258 116.13383157 -45.47158393 113.4200079 -45.46684265 110.7061615 C-45.45141232 104.3315772 -45.41053378 97.95743081 -45.3600952 91.58303779 C-45.30386096 84.31565952 -45.27663038 77.04825836 -45.25161803 69.78071606 C-45.19960551 54.85356834 -45.11187843 39.92682834 -45 25 C-43.93083344 24.40111465 -42.86166687 23.80222931 -41.76010132 23.18519592 C-40.32750968 22.38140295 -38.89494478 21.5775623 -37.46240234 20.77368164 C-36.76126816 20.38111427 -36.06013397 19.98854691 -35.3377533 19.58408356 C-27.73962289 15.31775731 -20.26925157 10.8411869 -12.80761719 6.34155273 C-11.0536854 5.28508952 -9.29663349 4.23398794 -7.5390625 3.18359375 C-6.52021973 2.57056396 -5.50137695 1.95753418 -4.45166016 1.32592773 C-2 0 -2 0 0 0 Z " fill="#D9B454" transform="translate(288,384)"/>
<path d="M0 0 C0 77.22 0 154.44 0 234 C-11.25 239.625 -11.25 239.625 -16 240 C-16.33 240.99 -16.66 241.98 -17 243 C-18.98 243.33 -20.96 243.66 -23 244 C-22.98948325 243.17800047 -22.9789665 242.35600094 -22.96813107 241.50909233 C-22.71750953 221.45912272 -22.5618343 201.41034568 -22.51034451 181.35883904 C-22.48318061 171.66156983 -22.42451451 161.96644661 -22.2902832 152.27001953 C-22.1732927 143.81312702 -22.11683807 135.3583034 -22.13146263 126.90057766 C-22.137128 122.42583826 -22.11358733 117.95576538 -22.01739311 113.4819603 C-20.71804826 94.02126475 -20.71804826 94.02126475 -27.66287231 76.75982666 C-31.69409956 73.00437975 -36.08346303 70.41964912 -41 68 C-50.94943215 62.44765103 -50.94943215 62.44765103 -53 58 C-54.01592492 53.24689564 -54.27393661 48.60165698 -54.375 43.75 C-54.41375244 42.50460449 -54.45250488 41.25920898 -54.49243164 39.97607422 C-54.26640188 31.27891883 -54.26640188 31.27891883 -51.02392578 28.00439453 C-48.41750201 26.42318113 -45.79874824 25.20471053 -43 24 C-41.36623169 23.09044615 -39.74343856 22.16086949 -38.1328125 21.2109375 C-36.46388967 20.26501075 -34.79460826 19.3197164 -33.125 18.375 C-24.73387397 13.61388374 -16.44124361 8.70870226 -8.22119141 3.65771484 C-7.03855713 2.93769287 -7.03855713 2.93769287 -5.83203125 2.203125 C-4.79139526 1.56358887 -4.79139526 1.56358887 -3.72973633 0.91113281 C-2 0 -2 0 0 0 Z " fill="#E3C367" transform="translate(359,315)"/>
<path d="M0 0 C6.75131349 4.50087566 6.75131349 4.50087566 9.296875 6.515625 C9.8640625 6.96292969 10.43125 7.41023438 11.015625 7.87109375 C11.58796875 8.32613281 12.1603125 8.78117187 12.75 9.25 C13.306875 9.68957031 13.86375 10.12914062 14.4375 10.58203125 C15.59450039 11.49668696 16.73929394 12.4269972 17.87131691 13.37239075 C19.99128591 15.07521808 19.99128591 15.07521808 22.52142906 16.3992157 C27.12313831 19.24803923 29.61609062 21.4019196 30.90745926 26.7774353 C31.36612865 31.66191978 31.23796163 36.54286499 31.13525391 41.44140625 C31.13243094 43.3243342 31.13402087 45.20727314 31.13967896 47.0901947 C31.14254262 52.1876366 31.08384863 57.28271465 31.01393938 62.37960815 C30.95132922 67.71128274 30.94554456 73.04301451 30.9336853 78.375 C30.90263199 88.4652641 30.82060984 98.5544418 30.72019041 108.64422798 C30.60832774 120.13376295 30.55341191 131.62335044 30.50323606 143.1132946 C30.39877386 166.74279818 30.22293747 190.37133816 30 214 C28.73308493 214.67408308 27.46129251 215.33900497 26.1875 216 C25.47980469 216.37125 24.77210938 216.7425 24.04296875 217.125 C22 218 22 218 19 218 C18.814375 218.598125 18.62875 219.19625 18.4375 219.8125 C16.68961496 222.47232506 14.92398856 223.03945612 12.01171875 224.14453125 C9.03222066 225.41154112 6.40973365 227.15675421 3.69921875 228.9140625 C2 230 2 230 0 231 C0 154.77 0 78.54 0 0 Z " fill="#DEB858" transform="translate(366,314)"/>
<path d="M0 0 C5.65405074 3.76936716 11.04378185 7.4595163 16.3125 11.6875 C17.49580862 12.62926462 18.67939471 13.57068073 19.86328125 14.51171875 C20.62572144 15.12213013 20.62572144 15.12213013 21.40356445 15.74487305 C23.01735569 17.07812885 23.01735569 17.07812885 25.06971359 18.1738863 C27 20 27 20 27.49219131 22.88354015 C27.48850414 24.06804414 27.48481697 25.25254812 27.48101807 26.47294617 C27.48443577 27.13296137 27.48785347 27.79297658 27.49137473 28.47299224 C27.49797408 30.68905824 27.47594593 32.9039183 27.45410156 35.11987305 C27.45297352 36.70650199 27.4536061 38.29313302 27.45587158 39.87976074 C27.45702135 44.1916112 27.43346986 48.50301843 27.40557575 52.81476569 C27.38060566 57.31909943 27.37822357 61.82344282 27.37347412 66.32783508 C27.3610314 74.85953992 27.32819231 83.39104024 27.28807616 91.92265493 C27.24339873 101.63472366 27.22138156 111.34680205 27.20129442 121.05894792 C27.15946077 141.03941285 27.08908357 161.01969355 27 181 C25.58227254 181.47597973 24.16424454 181.95106431 22.74609375 182.42578125 C21.9564624 182.69044189 21.16683105 182.95510254 20.35327148 183.2277832 C13.19535045 185.57662688 7.91381071 186 0 186 C0 124.62 0 63.24 0 0 Z " fill="#D6AF4B" transform="translate(295,383)"/>
<path d="M0 0 C10.23 0 20.46 0 31 0 C31.36244405 10.51854446 31.65550976 21.03290449 31.82899475 31.55629539 C31.91229081 36.44370949 32.02508007 41.32661043 32.20703125 46.21142578 C32.3817568 50.93216239 32.47670453 55.64858159 32.51803589 60.37230301 C32.54745545 62.16777202 32.6049243 63.96302071 32.69168091 65.75663376 C33.32684137 79.44062319 33.32684137 79.44062319 29.42716789 83.7300148 C25.56490626 86.84555903 21.33464551 89.06842742 16.84049797 91.13273621 C14.55448549 92.20993155 12.4958449 93.52287376 10.41015625 94.9453125 C8.75306641 96.02425781 8.75306641 96.02425781 7.0625 97.125 C6.47533203 97.50914062 5.88816406 97.89328125 5.28320312 98.2890625 C1.1054548 101 1.1054548 101 0 101 C0 67.67 0 34.34 0 0 Z " fill="#C79930" transform="translate(406,421)"/>
<path d="M0 0 C0.66 0 1.32 0 2 0 C2.5812787 9.30045918 0.54783163 15.75532768 -5.27734375 23.0546875 C-14.48133554 33.44831089 -27.2587769 39.77568743 -41.13031006 41.22213745 C-45.67974901 41.49509871 -50.22225807 41.48492918 -54.77783203 41.41162109 C-57.1296728 41.37492709 -59.47993241 41.37060485 -61.83203125 41.37109375 C-70.41379166 41.33162546 -78.57131854 40.75028584 -87 39 C-87.81082031 38.85175781 -88.62164063 38.70351563 -89.45703125 38.55078125 C-96.76840646 37.18804519 -103.93645001 35.268344 -111.125 33.375 C-112.36765625 33.05015625 -113.6103125 32.7253125 -114.890625 32.390625 C-117.92776069 31.5962972 -120.96418794 30.79936874 -124 30 C-124 29.34 -124 28.68 -124 28 C-105.66737332 23.60802035 -87.47343394 19.82974796 -68.76416016 17.37011719 C-66.42471609 17.05686889 -64.09351155 16.71649872 -61.76171875 16.3515625 C-53.29525637 15.07465342 -44.87002024 14.62253859 -36.32104492 14.34106445 C-35.41588135 14.30972412 -34.51071777 14.27838379 -33.578125 14.24609375 C-32.36237793 14.21020142 -32.36237793 14.21020142 -31.12207031 14.17358398 C-28.81135763 14.06924795 -28.81135763 14.06924795 -26 13 C-22.65420586 13.00722634 -19.32292712 13.07481362 -15.98046875 13.21484375 C-11.4159112 13.30834493 -8.61887437 12.83040453 -5 10 C-2.76973806 6.86111282 -1.3374544 3.60083877 0 0 Z " fill="#F9F9F9" transform="translate(893,507)"/>
<path d="M0 0 C0.33 0 0.66 0 1 0 C1 46.86 1 93.72 1 142 C0.01 141.67 -0.98 141.34 -2 141 C-2 100.74 -2 60.48 -2 19 C-1.67 19 -1.34 19 -1 19 C-0.67 12.73 -0.34 6.46 0 0 Z " fill="#AC8B3F" transform="translate(358,407)"/>
<path d="M0 0 C0.79535156 0.00451172 1.59070313 0.00902344 2.41015625 0.01367188 C4.31513913 0.02514768 6.22008172 0.04306206 8.125 0.0625 C8.125 0.7225 8.125 1.3825 8.125 2.0625 C7.02671875 2.07667969 5.9284375 2.09085938 4.796875 2.10546875 C-19.86473891 2.72122635 -44.60511536 6.8241892 -68.6953125 11.94921875 C-69.55415039 12.1301709 -70.41298828 12.31112305 -71.29785156 12.49755859 C-73.09221917 12.89090519 -74.88048211 13.31272593 -76.66308594 13.75634766 C-77.55543945 13.96694824 -78.44779297 14.17754883 -79.3671875 14.39453125 C-80.16237793 14.59409424 -80.95756836 14.79365723 -81.77685547 14.99926758 C-83.875 15.0625 -83.875 15.0625 -85.65673828 13.60424805 C-86.05876465 13.09547119 -86.46079102 12.58669434 -86.875 12.0625 C-58.34936047 5.59254236 -29.39786797 -0.33232372 0 0 Z " fill="#19283B" transform="translate(854.875,519.9375)"/>
<path d="M0 0 C0 0.33 0 0.66 0 1 C-0.89493164 1.1858667 -1.78986328 1.3717334 -2.71191406 1.56323242 C-23.88912412 5.93287546 -23.88912412 5.93287546 -44.9375 10.875 C-45.74541992 11.07762451 -46.55333984 11.28024902 -47.38574219 11.48901367 C-51.29005322 12.47119046 -51.29005322 12.47119046 -55 14 C-56.54023996 14.06950541 -58.08334988 14.08452357 -59.625 14.0625 C-60.85089844 14.04896484 -60.85089844 14.04896484 -62.1015625 14.03515625 C-63.04128906 14.01775391 -63.04128906 14.01775391 -64 14 C-64 13.01 -64 12.02 -64 11 C-53.26244064 8.18885949 -42.49466489 5.77341269 -31.58911133 3.70751953 C-29.16985062 3.2466377 -26.75401136 2.77000459 -24.33789062 2.29296875 C-16.1597579 0.71457315 -8.37404946 -0.54153035 0 0 Z " fill="#D8B251" transform="translate(801,525)"/>
<path d="M0 0 C2.75369929 2.75369929 3.4441833 6.00443986 4.625 9.625 C10.54127525 26.96847521 19.44350029 43.19519381 31.6640625 56.9140625 C33 59 33 59 32.58349609 61.13037109 C32.39094238 61.74734863 32.19838867 62.36432617 32 63 C19.72931854 47.38654407 -0.93316764 20.97760855 0 0 Z " fill="#504F46" transform="translate(206,533)"/>
<path d="M0 0 C0 22.44 0 44.88 0 68 C-0.33 68 -0.66 68 -1 68 C-1.91903301 59.34406295 -2.09601979 50.76833572 -2.01803589 42.07281494 C-1.93226273 31.91791134 -1.89165666 21.76892827 -2.4375 11.625 C-2.47681641 10.87210693 -2.51613281 10.11921387 -2.55664062 9.34350586 C-2.74150965 6.35182731 -3.04686178 3.85941467 -4 1 C-2 0 -2 0 0 0 Z " fill="#F9E18B" transform="translate(358,316)"/>
<path d="M0 0 C0 0.66 0 1.32 0 2 C-1.85625 2.05607422 -1.85625 2.05607422 -3.75 2.11328125 C-14.79594171 2.51263619 -25.628958 3.40951124 -36.5625 5.0715332 C-43.23099415 6.01871058 -49.32503952 5.88858685 -56 5 C-56 4.67 -56 4.34 -56 4 C-37.22283951 1.54003924 -18.94683364 -0.19333504 0 0 Z " fill="#585B51" transform="translate(863,520)"/>
<path d="M0 0 C2.97 1.98 2.97 1.98 6 4 C5.01 4.495 5.01 4.495 4 5 C3.34 4.67 2.68 4.34 2 4 C1.67 22.15 1.34 40.3 1 59 C0.67 59 0.34 59 0 59 C0 39.53 0 20.06 0 0 Z " fill="#E1C26B" transform="translate(295,383)"/>
<path d="M0 0 C2.475 0.495 2.475 0.495 5 1 C1.71094419 3.19270388 -0.71873658 3.74221082 -4.5625 4.5625 C-8.90721829 5.42101371 -8.90721829 5.42101371 -13 7 C-14.54023996 7.06950541 -16.08334988 7.08452357 -17.625 7.0625 C-18.85089844 7.04896484 -18.85089844 7.04896484 -20.1015625 7.03515625 C-21.04128906 7.01775391 -21.04128906 7.01775391 -22 7 C-22 6.01 -22 5.02 -22 4 C-14.73973247 1.82191974 -7.54673035 1.40277493 0 1 C0 0.67 0 0.34 0 0 Z " fill="#CDA641" transform="translate(759,532)"/>
<path d="M0 0 C0 0.33 0 0.66 0 1 C-0.87140625 1.21914063 -1.7428125 1.43828125 -2.640625 1.6640625 C-15.29625769 5.03341926 -25.56754219 9.61518087 -35 19 C-35.33 18.01 -35.66 17.02 -36 16 C-25.35491202 7.36884758 -14.22765719 -0.33087575 0 0 Z " fill="#E4DA98" transform="translate(516,420)"/>
<path d="M0 0 C5.17930997 1.24303439 8.70166639 2.85487785 13 6 C11.68 7.32 10.36 8.64 9 10 C8.4225 9.54625 7.845 9.0925 7.25 8.625 C5.11116216 6.94189251 5.11116216 6.94189251 2.8125 6.125 C1 5 1 5 0.25 2.375 C0.1675 1.59125 0.085 0.8075 0 0 Z " fill="#202F3F" transform="translate(880,490)"/>
<path d="M0 0 C3.58706303 3.58706303 3.05691921 8.3449806 3.09765625 13.1796875 C3.09106437 15.07814972 3.07922033 16.97659996 3.0625 18.875 C3.05798828 19.84953125 3.05347656 20.8240625 3.04882812 21.828125 C3.03710906 24.21881434 3.02070219 26.6093744 3 29 C0.17312433 26.17312433 0.59325258 24.07779675 0.375 20.125 C0.33705322 19.46040771 0.29910645 18.79581543 0.26000977 18.11108398 C-0.05785689 12.0745006 -0.10129204 6.04375812 0 0 Z " fill="#B2954A" transform="translate(594,466)"/>
<path d="M0 0 C0 0.33 0 0.66 0 1 C-3.51954254 1.3678478 -7.04071958 1.71679008 -10.5625 2.0625 C-11.55314453 2.16626953 -12.54378906 2.27003906 -13.56445312 2.37695312 C-18.94503799 2.89534834 -23.69130695 3.06471684 -29 2 C-29 1.67 -29 1.34 -29 1 C-19.10157731 -0.53749569 -10.02200063 -1.26991104 0 0 Z " fill="#4A4F55" transform="translate(836,523)"/>
<path d="M0 0 C-3.42966132 2.28644088 -5.6934208 2.60861048 -9.75 3.1875 C-11.53664063 3.45626953 -11.53664063 3.45626953 -13.359375 3.73046875 C-17.09407326 4.00696465 -20.32468314 3.6643842 -24 3 C-24 2.67 -24 2.34 -24 2 C-15.92046224 0.18655665 -8.26747851 -0.23658921 0 0 Z " fill="#303840" transform="translate(814,525)"/>
<path d="M0 0 C1.69458607 1.64474531 3.35614246 3.30530151 5 5 C5.56203125 5.5775 6.1240625 6.155 6.703125 6.75 C7.25484375 7.348125 7.8065625 7.94625 8.375 8.5625 C8.89835938 9.12066406 9.42171875 9.67882812 9.9609375 10.25390625 C11 12 11 12 10.6640625 14.21484375 C10.44492188 14.80394531 10.22578125 15.39304687 10 16 C8.3243583 13.90245565 6.65949806 11.79775361 5 9.6875 C4.52304688 9.09259766 4.04609375 8.49769531 3.5546875 7.88476562 C0 3.33984375 0 3.33984375 0 0 Z " fill="#30373B" transform="translate(228,580)"/>
<path d="M0 0 C2.97 1.98 2.97 1.98 6 4 C5.01 4.495 5.01 4.495 4 5 C3.34 4.67 2.68 4.34 2 4 C2.02320313 4.67546875 2.04640625 5.3509375 2.0703125 6.046875 C2.08835937 6.93890625 2.10640625 7.8309375 2.125 8.75 C2.14820313 9.63171875 2.17140625 10.5134375 2.1953125 11.421875 C2 14 2 14 0 18 C0 12.06 0 6.12 0 0 Z " fill="#ECD177" transform="translate(295,383)"/>
<path d="M0 0 C-0.639375 0.474375 -1.27875 0.94875 -1.9375 1.4375 C-3.88293306 2.83738726 -3.88293306 2.83738726 -5 4 C-7.33297433 4.04092937 -9.66705225 4.04241723 -12 4 C-12 3.01 -12 2.02 -12 1 C-3.96428571 -1.27678571 -3.96428571 -1.27678571 0 0 Z " fill="#E0B445" transform="translate(749,535)"/>
<path d="M0 0 C-0.66 0 -1.32 0 -2 0 C-2 0.66 -2 1.32 -2 2 C-2.928125 1.979375 -3.85625 1.95875 -4.8125 1.9375 C-8.02286011 1.84230396 -8.02286011 1.84230396 -11 3 C-13.33299825 3.03954234 -15.66708189 3.04401732 -18 3 C-14.93344745 0.95563163 -13.12890332 0.45609789 -9.5625 -0.1875 C-8.61503906 -0.36667969 -7.66757812 -0.54585937 -6.69140625 -0.73046875 C-4.10788261 -0.98919608 -2.43945237 -0.81315079 0 0 Z " fill="#E1B94D" transform="translate(768,531)"/>
<path d="M0 0 C0 0.66 0 1.32 0 2 C-2.10149011 2.38971999 -4.2063482 2.76131477 -6.3125 3.125 C-7.48425781 3.33382813 -8.65601563 3.54265625 -9.86328125 3.7578125 C-13 4 -13 4 -16 2 C-14.08404518 1.66259915 -12.16720278 1.33023588 -10.25 1 C-9.18265625 0.814375 -8.1153125 0.62875 -7.015625 0.4375 C-4 0 -4 0 0 0 Z " fill="#D8CA7C" transform="translate(794,497)"/>
<path d="M0 0 C0.33 1.32 0.66 2.64 1 4 C-4.37305699 4.96891192 -4.37305699 4.96891192 -7 5 C-9 3.5625 -9 3.5625 -10 2 C-8.7090864 1.66376204 -7.41723903 1.33110751 -6.125 1 C-5.40570312 0.814375 -4.68640625 0.62875 -3.9453125 0.4375 C-2 0 -2 0 0 0 Z " fill="#283440" transform="translate(778,530)"/>
<path d="M0 0 C0.66 0 1.32 0 2 0 C2 2.97 2 5.94 2 9 C1.34 8.34 0.68 7.68 0 7 C-1.32 7.99 -2.64 8.98 -4 10 C-3.52449439 8.51965236 -3.04448784 7.04074979 -2.5625 5.5625 C-2.29566406 4.73878906 -2.02882813 3.91507812 -1.75390625 3.06640625 C-1 1 -1 1 0 0 Z " fill="#F8F1E0" transform="translate(893,507)"/>
<path d="M0 0 C4.29 0.66 8.58 1.32 13 2 C12.01 3.485 12.01 3.485 11 5 C6.87248551 4.39301257 3.6678852 2.96189209 0 1 C0 0.67 0 0.34 0 0 Z " fill="#F7E595" transform="translate(319,642)"/>
<path d="M0 0 C1.485 0.99 1.485 0.99 3 2 C2.34 5.3 1.68 8.6 1 12 C0.67 12 0.34 12 0 12 C0 8.04 0 4.08 0 0 Z " fill="#EBD68B" transform="translate(366,314)"/>
<path d="M0 0 C0 2.64 0 5.28 0 8 C-0.99 8.495 -0.99 8.495 -2 9 C-2.144375 8.236875 -2.28875 7.47375 -2.4375 6.6875 C-2.9632594 3.91827092 -2.9632594 3.91827092 -4 1 C-2 0 -2 0 0 0 Z " fill="#F3E08F" transform="translate(358,316)"/>
<path d="M0 0 C0 0.66 0 1.32 0 2 C-2.88211302 2.96070434 -4.69850044 3.10581883 -7.6875 3.0625 C-8.89986328 3.04896484 -8.89986328 3.04896484 -10.13671875 3.03515625 C-11.05904297 3.01775391 -11.05904297 3.01775391 -12 3 C-7.74560485 0.81962249 -4.84315381 0 0 0 Z " fill="#C8B971" transform="translate(766,502)"/>
<path d="M0 0 C0.66 0.33 1.32 0.66 2 1 C-1.5087188 4.09592835 -4.49197399 5.74194623 -9 7 C-9 6.34 -9 5.68 -9 5 C-7.54735962 4.1361871 -6.0876837 3.28419546 -4.625 2.4375 C-3.40683594 1.72400391 -3.40683594 1.72400391 -2.1640625 0.99609375 C-1.44992187 0.66738281 -0.73578125 0.33867187 0 0 Z " fill="#E5D68F" transform="translate(332,330)"/>
<path d="M0 0 C-6.28571429 4.42857143 -6.28571429 4.42857143 -10 5 C-9 2 -9 2 -6.125 0.25 C-3 -1 -3 -1 0 0 Z " fill="#EADC95" transform="translate(321,339)"/>
</svg>
